<?xml version="1.0" encoding="utf-8"?>
<!-- Generator: Adobe Illustrator 25.3.1, SVG Export Plug-In . SVG Version: 6.00 Build 0)  -->
<svg version="1.1" id="Calque_1" xmlns="http://www.w3.org/2000/svg" xmlns:xlink="http://www.w3.org/1999/xlink" x="0px" y="0px"
	 viewBox="0 0 595.3 197.9" style="enable-background:new 0 0 595.3 197.9;" xml:space="preserve">
<style type="text/css">
	.st0{fill:#014593;}
</style>
<g>
	<polygon class="st0" points="134,67.3 124.1,78.5 124.2,124.4 125.5,124.4 135.5,112.9 135.5,96.7 159.6,124.4 160.3,124.4 
		168.4,115.8 147.1,92.8 169.3,67.3 154,67.3 135.5,88.5 135.6,67.3 	"/>
	<polygon class="st0" points="181.9,67.3 171.1,79.6 171.1,124.4 172.6,124.4 182.5,113.1 182.5,98.3 188.6,98.3 198.6,86.8 
		182.5,86.8 182.5,78.7 204.2,78.7 214.1,67.3 	"/>
	<g>
		<path class="st0" d="M82.6,78.8l9.9-11.5c0,0,11.1,0,13.1,0c1.9,0,9.3,2.4,12.5,8.3c3.2,5.9,3.7,13,0.9,18.9
			c-2.8,5.8-7.9,7.7-8.9,8.1c-1,0.4-3.5,1.1-4.7,1.1c-1.1,0-11.5,0.1-11.5,0.1v9.9l-10.1,10.7h-1.2L82.6,78.8z M104.1,92.4
			c0.5,0,3.8-0.5,4.7-3.7c1.2-4.4,0-6.4-0.8-7.7c-0.7-1.3-2.4-2.2-4.5-2.2c-2,0-9.5,0-9.5,0v13.6C94,92.4,103.6,92.4,104.1,92.4"/>
		<path class="st0" d="M82.6,78.8l9.9-11.5c0,0,11.1,0,13.1,0c1.9,0,9.3,2.4,12.5,8.3c3.2,5.9,3.7,13,0.9,18.9
			c-2.8,5.8-7.9,7.7-8.9,8.1c-1,0.4-3.5,1.1-4.7,1.1c-1.1,0-11.5,0.1-11.5,0.1v9.9l-10.1,10.7h-1.2L82.6,78.8z M104.1,92.4
			c0.5,0,3.8-0.5,4.7-3.7c1.2-4.4,0-6.4-0.8-7.7c-0.7-1.3-2.4-2.2-4.5-2.2c-2,0-9.5,0-9.5,0v13.6C94,92.4,103.6,92.4,104.1,92.4"/>
	</g>
	<polygon class="st0" points="244.8,98.8 244.3,97.8 234,97.8 217,117.2 217,118.4 227.7,118.4 	"/>
	<g>
		<path d="M269.5,118.4v-2h3.7V75.9h-3.7v-2h21.6c3.9,0,7.2,0.9,9.9,2.7c3.3,2.2,4.9,5.2,4.9,8.9c0,1.2-0.2,2.5-0.6,3.7
			c-1.4,4-4.6,6.7-9.6,8l11.6,19.2h1.6c0.3,0,0.6,0,0.9,0.1c0.6,0.1,1,0.8,1,1.9l-12.5,0.1L287,98.1h-4.7v18.3h3.7v2H269.5z
			 M282.3,75.9v19.9h5.6c1.7,0,3.3-0.5,4.6-1.4c2.5-1.8,3.8-4.7,3.8-8.7c0-1.5-0.2-3-0.7-4.3c-1.4-3.7-4.1-5.6-8.1-5.6H282.3z"/>
		<path d="M344.9,114.4c-3.3,3.2-7.9,4.7-14,4.7c-5.2,0-9.7-1.3-13.6-3.8c0,0.9,0,1.6-0.1,2.1c-0.2,0.7-1,1.1-2.2,1.1V103h2.7
			c0.1,1.9,0.5,3.7,1,5.3c1.9,5.8,5.8,8.7,11.6,8.7c1.6,0,3-0.3,4.3-0.8c3.2-1.3,4.8-3.7,4.8-7.1c0-1.1-0.3-2.2-0.8-3.3
			c-1-2.1-3.7-4.2-8.1-6.3c-4.7-2.3-7.4-3.7-8.2-4.1c-4.6-2.8-7-6.3-7-10.4c0-2.8,1-5.2,3-7.2c3-3.1,7.4-4.6,13.1-4.6
			c4.5,0,8.7,1,12.6,2.9c0-0.4,0-0.8,0.1-1.2c0.2-0.9,1-1.4,2.4-1.4v13.3h-2.7c0-2.7-0.7-5.1-2.1-7c-2.1-2.9-5.1-4.4-9.2-4.4
			c-1.3,0-2.5,0.2-3.6,0.7c-2.9,1.1-4.3,3.1-4.3,6.1c0,1.1,0.3,2.2,0.8,3.3c1,2,3.7,4.1,7.9,6.2c4.6,2.3,7.3,3.6,8,4
			c4.6,2.9,7,6.4,7,10.6C348.3,109.4,347.2,112.1,344.9,114.4"/>
		<path d="M355.8,118.4v-2h3.7V75.9h-3.7v-2h16.4v2h-3.7v40.5h1.7c1,0.1,1.7,0.8,2,2H355.8z"/>
		<path d="M380.6,118.4v-2h3.7V75.9h-3.7v-2h16.8v2h-4v40.5h8.4c1.4,0,2.6-0.2,3.6-0.7c2-0.9,3.5-3.1,4.5-6.6l1.9-6.4h1.9l-0.3,15.7
			H380.6z"/>
		<path d="M454.5,77.7c5.7,4.2,8.6,10.4,8.6,18.5c0,6.8-2.3,12.4-7,16.7c-4.4,4.1-9.8,6.2-16.1,6.2c-5.6,0-10.5-1.6-14.7-4.9
			c-5.6-4.3-8.4-10.4-8.4-18.3c0-6.8,2.3-12.4,7-16.7c4.4-4.1,9.9-6.1,16.2-6.1C445.7,73.2,450.5,74.7,454.5,77.7 M443.6,116.6
			c6.1-1.6,9.2-8.5,9.2-20.7c0-3.2-0.2-6.1-0.7-8.5c-1.4-8.1-5.5-12.1-12.1-12.1c-0.4,0-0.9,0-1.4,0.1c-7.6,0.7-11.3,7.6-11.3,20.8
			c0,4.3,0.4,8,1.2,11c1.7,6.5,5.7,9.7,11.8,9.7C441.5,117,442.6,116.8,443.6,116.6"/>
		<path d="M502.2,73.9h10.5v2h-3.7v42.4h-4.2l-28.4-33.9v31.9h2c1,0.1,1.7,0.8,2,2h-10.7v-2h3.7V75.9h-3.7v-2h9.5L506,106V75.9h-3.8
			V73.9z"/>
		<path d="M266.3,116.4c-0.2,0-0.5-0.1-0.8-0.1H264l-20.5-43.1l-6.7,7.7l17.8,35.4h-2.8v2h15.6C267.4,117.2,267,116.6,266.3,116.4"
			/>
	</g>
</g>
</svg>
